<svg version="1.2" xmlns="http://www.w3.org/2000/svg" viewBox="0 0 16 16" width="16" height="16">
	<title>RemoteTransform2D-svg</title>
	<style>
		.s0 { fill: #1fff0e } 
	</style>
	<path id="Layer" class="s0" d="m8 1q-1.1 0-2.1 0.3-1 0.2-1.9 0.8-0.9 0.5-1.7 1.2-0.7 0.8-1.2 1.7-0.2 0.4-0.1 0.8 0.1 0.4 0.4 0.6 0.4 0.2 0.8 0.1 0.4-0.1 0.6-0.5c0.5-0.9 1.3-1.7 2.2-2.2 0.9-0.5 1.9-0.8 3-0.8 1.1 0 2.1 0.3 3 0.8 0.9 0.5 1.7 1.3 2.2 2.2q0.2 0.4 0.6 0.5 0.4 0.1 0.8-0.1 0.3-0.2 0.4-0.6 0.1-0.4-0.1-0.8-0.5-0.9-1.2-1.7-0.8-0.7-1.7-1.2-0.9-0.6-1.9-0.8-1-0.3-2.1-0.3zm0 4q-0.7 0-1.3 0.2-0.6 0.2-1.1 0.6-0.6 0.4-0.9 1-0.4 0.5-0.6 1.2 0 0.4 0.2 0.7 0.2 0.3 0.6 0.5 0.3 0.1 0.7-0.1 0.3-0.2 0.5-0.6c0.1-0.4 0.3-0.8 0.7-1.1 0.3-0.3 0.8-0.4 1.2-0.4 0.4 0 0.9 0.1 1.2 0.4 0.4 0.3 0.6 0.7 0.7 1.1q0.2 0.4 0.5 0.6 0.4 0.2 0.7 0.1 0.4-0.2 0.6-0.5 0.2-0.3 0.2-0.7-0.2-0.7-0.6-1.2-0.3-0.6-0.9-1-0.5-0.4-1.1-0.6-0.6-0.2-1.3-0.2zm0 4q-0.2 0-0.4 0.1-0.2 0.1-0.3 0.2-0.1 0.1-0.2 0.3-0.1 0.2-0.1 0.4v1h-3c0 1.1 0.4 2.1 1.2 2.8 0.7 0.8 1.7 1.2 2.8 1.2 1.1 0 2.1-0.4 2.8-1.2 0.8-0.7 1.2-1.7 1.2-2.8h-3v-1q0-0.2-0.1-0.4-0.1-0.2-0.2-0.3-0.1-0.1-0.3-0.2-0.2-0.1-0.4-0.1z"/>
</svg>